<svg width="1340" height="960" viewBox="0 0 1340 960" fill="none" xmlns="http://www.w3.org/2000/svg">
<path d="M823.683 525.356L823.68 525.351C820.39 518.767 820.003 513.599 821.265 509.448C822.533 505.275 825.519 501.956 829.314 499.186C833.111 496.414 837.634 494.253 841.861 492.364C842.567 492.049 843.267 491.74 843.956 491.436C847.329 489.949 850.422 488.585 852.476 487.193L852.482 487.189L852.488 487.184C859.502 482.279 867.529 481.239 875.712 480.18C875.946 480.15 876.179 480.119 876.413 480.089C884.755 479.006 893.245 477.783 900.256 471.886L900.263 471.88L900.27 471.874C905.95 466.915 914.023 465.781 922.157 468.471C923.859 469.306 925.791 470.275 927.34 471.987C929.487 474.491 930.35 477.904 930.262 481.223C930.174 484.548 929.136 487.602 927.694 489.366C926.143 491.031 924.204 492.118 922.063 493.202C921.79 493.341 921.512 493.48 921.231 493.62C919.352 494.56 917.346 495.563 915.559 496.987L915.553 496.992C912.516 499.448 910.313 503.145 908.494 507.23C907.064 510.441 905.836 513.979 904.631 517.449C904.303 518.395 903.976 519.336 903.647 520.264C902.1 524.634 900.51 528.719 898.482 531.91C896.459 535.09 894.075 537.265 890.978 538.005L890.967 538.007L890.955 538.01C886.79 539.11 882.103 537.365 877.006 535.033C876.303 534.711 875.591 534.378 874.876 534.043C873.059 533.193 871.216 532.33 869.405 531.601C866.871 530.581 864.302 529.779 861.784 529.6L861.782 529.6C858.095 529.345 854.794 530.397 851.675 531.643C850.871 531.964 850.085 532.296 849.307 532.623C847.009 533.59 844.784 534.527 842.401 535.085L842.377 535.09L842.353 535.097C836.366 536.816 828.118 534.357 823.683 525.356Z" stroke="#FF9900" stroke-width="2" stroke-miterlimit="10"/>
<path d="M922.964 523.25L922.962 523.26C922.303 525.614 921.673 528.132 921.024 530.731C919.909 535.188 918.736 539.884 917.254 544.394C914.915 551.514 911.902 557.836 907.435 561.56C903.286 564.97 898.503 565.642 893.126 565.065C888.669 564.535 884.075 562.745 879.222 560.431C877.01 559.376 874.763 558.222 872.459 557.039C872.239 556.926 872.019 556.813 871.798 556.7C869.271 555.403 866.678 554.081 864.023 552.845C859.304 550.532 854.7 548.802 850.156 548.499C844.962 547.882 840.17 548.893 835.44 550.421C833.287 551.116 831.127 551.925 828.949 552.742C828.735 552.822 828.52 552.902 828.306 552.983C825.9 553.883 823.462 554.782 820.923 555.563L820.914 555.565C806.811 560.048 792.201 551.78 784.561 535.556C781.999 530.117 780.179 524.791 779.093 519.575C777.665 511.794 777.055 503.075 778.22 495.271C779.387 487.451 782.313 480.691 787.823 476.618C788.967 475.774 790.509 475.32 792.374 475.118C794.236 474.917 796.318 474.975 798.485 475.078C798.854 475.095 799.225 475.114 799.598 475.133C801.387 475.224 803.209 475.316 804.905 475.272C806.95 475.219 808.939 474.968 810.582 474.206L810.589 474.202L810.596 474.199C814.161 472.477 817.551 470.731 820.816 469.05C826.857 465.939 832.465 463.052 837.938 460.951L837.947 460.947L837.957 460.944C845.314 457.944 851.989 453.804 858.504 449.762C859.249 449.3 859.992 448.839 860.734 448.381C867.992 443.901 875.137 439.715 883.053 437.357C886.672 436.286 890.913 436.838 895.45 437.527C895.684 437.563 895.919 437.599 896.154 437.635C900.356 438.277 904.782 438.954 908.739 438.147C910.252 438.011 911.351 437.63 912.635 436.799L912.649 436.79L912.663 436.781C922.348 430.044 934.393 430.004 945.886 435.122L945.899 435.128L945.913 435.133C949.078 436.432 952.145 438.439 955.037 441.896L955.173 442.058L955.364 442.152C955.384 442.161 955.402 442.17 955.418 442.179L955.443 442.251L955.535 442.375C959.353 447.553 961.124 454.44 961.265 460.95C961.407 467.486 959.903 473.432 957.408 476.763L957.397 476.778L957.386 476.793C955.257 479.863 952.457 481.761 949.407 483.46C948.652 483.881 947.872 484.293 947.082 484.711C944.742 485.949 942.313 487.234 940.159 488.926C938.447 490.231 937.014 491.458 935.686 493.03C932.256 496.958 929.853 501.885 927.923 507.114C926.405 511.227 925.16 515.585 923.947 519.835C923.619 520.983 923.293 522.124 922.964 523.25Z" stroke="#FF9900" stroke-width="2" stroke-miterlimit="10"/>
<path d="M917.512 589.685L917.505 589.689L917.499 589.693C910.668 594.392 903.052 593.995 895.382 592.063C889.282 590.497 883.188 587.515 876.908 584.039C874.662 582.797 872.384 581.485 870.076 580.157C865.979 577.798 861.788 575.386 857.517 573.206C851.337 569.908 845.27 568.009 839.529 567.079L839.516 567.077L839.503 567.075C832.6 566.144 826.182 567.349 819.807 569.305C816.623 570.281 813.433 571.451 810.198 572.64L810.013 572.708C806.831 573.878 803.602 575.065 800.248 576.126C777.171 583.324 756.663 569.314 745.866 545.969C742.302 537.616 739.092 529.236 737.668 520.98L737.668 520.98L737.665 520.968C735.564 509.642 733.748 495.806 734.584 483.214C735.423 470.587 738.911 459.463 747.16 453.236C748.726 452.103 751.081 451.719 754.076 451.852C757.049 451.984 760.449 452.612 763.956 453.304C764.327 453.377 764.699 453.451 765.072 453.525C768.192 454.145 771.358 454.774 774.24 455.065C777.439 455.39 780.482 455.324 782.806 454.229L782.806 454.229L782.816 454.224C787.698 451.858 792.371 449.371 796.915 446.952C799.329 445.667 801.706 444.402 804.059 443.184C810.869 439.66 817.531 436.505 824.497 434.298C835.958 430.741 845.37 422.903 854.519 415.081C854.867 414.783 855.216 414.484 855.564 414.186C864.408 406.617 873.069 399.205 883.326 395.362L883.332 395.36C885.355 394.589 887.801 394.621 890.592 395.195C893.378 395.769 896.399 396.859 899.524 398.094C900.459 398.464 901.406 398.848 902.357 399.233C904.551 400.122 906.765 401.019 908.902 401.771C911.965 402.848 914.986 403.67 917.744 403.763C919.654 403.859 921.567 403.627 923.275 402.633L923.308 402.614L923.339 402.593C937.327 392.972 954.357 394.025 969.825 401.347C974.416 403.599 978.874 406.56 983.158 412.009L983.596 412.567L983.691 412.535C989.222 420.148 991.942 430.344 992.343 439.956C992.746 449.612 990.802 458.449 987.257 463.372L987.249 463.382L987.242 463.393C984.062 468.064 979.966 470.847 975.552 473.368C974.628 473.896 973.685 474.414 972.733 474.937C969.177 476.892 965.488 478.919 962.165 481.775L962.156 481.783L962.147 481.791C960.22 483.531 958.055 485.725 956.316 488.155C948.124 499.421 944.373 515.015 941.012 528.986C940.647 530.502 940.287 531.998 939.927 533.467L939.925 533.475C939.201 536.525 938.511 539.862 937.788 543.357C936.378 550.177 934.844 557.598 932.691 564.656C929.437 575.327 924.866 584.784 917.512 589.685Z" stroke="#FF9900" stroke-width="2" stroke-miterlimit="10"/>
<path d="M695.471 523.168C697.577 534.521 701.491 545.967 706.676 556.978C720.726 587.683 747.988 609.256 779.882 597.64C782.155 596.816 784.382 595.984 786.574 595.165C801.139 589.722 814.133 584.866 828.466 587.065C835.593 588.178 842.838 590.673 850.735 595.075M695.471 523.168L696.454 522.987M695.471 523.168L696.454 522.986C696.454 522.986 696.454 522.986 696.454 522.987M695.471 523.168C690.037 493.777 683.301 447.076 706.227 430.005C711.284 426.221 721.507 428.924 731.619 431.598C740.729 434.007 749.749 436.392 754.817 433.986C761.579 430.719 767.942 427.227 774.161 423.814C786.44 417.076 798.152 410.649 811.243 406.88C826.679 402.552 838.678 390.549 850.637 378.583C861.021 368.195 871.376 357.835 883.928 352.553L850.735 595.075M696.454 522.987C698.542 534.242 702.426 545.605 707.581 556.552L707.585 556.561L707.585 556.561C714.552 571.786 724.765 584.68 737.114 592.329C749.433 599.96 763.903 602.395 779.539 596.7L779.541 596.7C781.796 595.883 784.014 595.053 786.202 594.235C800.745 588.796 814.007 583.835 828.617 586.076L828.62 586.077C835.872 587.21 843.224 589.745 851.205 594.192M696.454 522.987C693.738 508.297 690.714 489.364 691.214 471.995C691.715 454.57 695.754 439.051 706.824 430.807L706.826 430.805C708.91 429.246 712.147 428.873 716.268 429.301C720.35 429.724 725.048 430.901 729.863 432.169C730.363 432.3 730.864 432.433 731.366 432.565C735.662 433.702 739.997 434.848 743.906 435.481C748.232 436.182 752.275 436.3 755.246 434.889L755.252 434.886C762.036 431.608 768.441 428.094 774.672 424.675C777.697 423.015 780.68 421.378 783.647 419.801C792.754 414.96 801.758 410.652 811.516 407.842C826.22 403.718 837.81 392.783 848.978 381.655C849.757 380.878 850.535 380.101 851.311 379.324C861.733 368.9 871.951 358.68 884.31 353.477C886.72 352.499 889.723 352.725 893.222 353.808C896.71 354.887 900.535 356.766 904.496 358.891C905.905 359.646 907.335 360.435 908.77 361.226C911.333 362.64 913.909 364.061 916.399 365.311C920.288 367.264 924.103 368.874 927.555 369.459L927.601 369.466L927.647 369.47L927.689 369.473C928.935 369.567 930.274 369.668 931.518 369.574C932.773 369.479 934.044 369.178 935.101 368.381C953.086 355.992 974.675 357.947 994.529 367.683C1000.38 370.553 1006.61 374.639 1011.95 382.122C1012.03 382.275 1012.11 382.396 1012.19 382.486C1012.28 382.597 1012.38 382.695 1012.44 382.755L1012.45 382.764C1012.5 382.816 1012.53 382.845 1012.55 382.866L1012.57 382.925L1012.65 383.036C1019.66 393.36 1023.19 406.953 1023.81 419.705C1024.44 432.489 1022.14 444.21 1017.74 450.843L1017.74 450.85C1013.56 457.268 1008.1 460.961 1002.27 464.275C1001.15 464.914 1000.01 465.541 998.86 466.172C994.087 468.793 989.172 471.491 984.832 475.458L984.813 475.476L984.794 475.494L984.761 475.528C982.151 478.178 979.463 480.909 977.31 484.188C971.332 492.548 967.443 502.686 964.471 513.148C962.45 520.262 960.838 527.587 959.288 534.628C958.562 537.928 957.85 541.165 957.115 544.289L957.115 544.289C956.185 548.252 955.301 552.661 954.367 557.318C952.587 566.196 950.626 575.975 947.819 585.276C943.542 599.449 937.407 612.081 927.33 618.277C918.307 623.744 907.508 622.353 897.572 619.056C889.85 616.443 882.271 612.273 874.593 607.715C872.739 606.614 870.877 605.489 869.007 604.36C863.169 600.833 857.249 597.257 851.205 594.192M851.205 594.192C851.199 594.189 851.193 594.186 851.187 594.183L850.735 595.075M851.205 594.192C851.21 594.195 851.216 594.198 851.222 594.201L850.735 595.075" stroke="#FF9900" stroke-width="2" stroke-miterlimit="10"/>
<path d="M937.348 646.449L937.345 646.451C925.589 653.216 911.924 650.705 899.737 646.045C890.4 642.382 881.342 637.025 872.151 631.294C870.509 630.271 868.863 629.235 867.21 628.196C859.635 623.43 851.927 618.58 843.922 614.436C834.249 609.161 825.616 605.992 816.859 604.655L816.857 604.655C798.483 601.889 781.677 608.251 762.557 615.489C761.091 616.043 759.612 616.603 758.118 617.164L758.117 617.165C738.303 624.639 720.143 621.517 704.77 611.829C689.365 602.121 676.732 585.795 668.14 566.861C661.992 553.024 656.82 538.914 654.391 524.601L654.39 524.594L654.382 524.548C651.158 506.286 646.906 482.204 647.012 460.053C647.119 437.817 651.62 417.917 665.519 407.647C668.162 405.723 672.319 405.427 677.579 406.196C682.79 406.958 688.799 408.717 694.928 410.579C695.491 410.75 696.055 410.922 696.62 411.094C702.165 412.784 707.744 414.485 712.742 415.475C718.198 416.556 723.226 416.851 726.828 415.133C735.464 411.066 743.576 406.529 751.528 402.082C755.011 400.134 758.463 398.203 761.915 396.337C773.28 390.192 784.707 384.703 797.473 381.393C815.462 376.868 829.143 362.871 842.274 348.413C843.399 347.174 844.52 345.932 845.64 344.692C857.675 331.358 869.525 318.23 884.228 311.601L884.231 311.6C887.012 310.335 890.594 310.73 894.847 312.328C899.075 313.917 903.758 316.615 908.611 319.656C910.433 320.797 912.284 321.991 914.139 323.187C917.184 325.149 920.238 327.118 923.186 328.873C927.935 331.699 932.558 334.063 936.68 335.053L936.708 335.06L936.737 335.065C940.137 335.676 943.054 335.957 945.739 334.219L945.751 334.212L945.761 334.204C968.079 318.901 994.565 321.66 1018.48 333.913L1018.49 333.917L1018.49 333.92C1025.62 337.413 1033.23 342.44 1039.97 351.921C1040.13 352.328 1040.35 352.608 1040.52 352.801C1040.57 352.859 1040.6 352.895 1040.62 352.922C1040.65 352.951 1040.67 352.97 1040.69 352.995L1040.71 353.061L1040.78 353.172C1049.63 366.25 1054.14 383.24 1055.03 399.096C1055.91 414.987 1053.16 429.524 1047.71 437.755L1047.71 437.761C1042.48 445.778 1035.63 450.304 1028.38 454.417C1027.22 455.077 1026.04 455.727 1024.86 456.38C1018.72 459.778 1012.42 463.261 1006.97 468.612C1003.45 471.97 1000.34 475.559 997.767 479.697C990.751 490.187 986.141 502.876 982.632 515.916C980.135 525.195 978.183 534.708 976.325 543.76C975.573 547.425 974.836 551.014 974.085 554.482C973.037 559.188 972.041 564.49 970.981 570.132C968.895 581.236 966.561 593.658 963.101 605.447C957.88 623.232 950.205 639.118 937.348 646.449Z" stroke="#FF9900" stroke-width="2" stroke-miterlimit="10"/>
<path d="M990.848 565.087L990.847 565.092C989.739 570.4 988.683 576.377 987.557 582.748C985.17 596.255 982.469 611.538 978.293 626.001C972.145 647.295 962.903 666.372 947.147 675.055C933.175 682.587 916.74 679.259 901.888 673.03C890.939 668.316 880.431 661.851 869.837 655.003C867.851 653.72 865.863 652.422 863.867 651.121C855.238 645.492 846.49 639.787 837.401 634.791C826.327 628.561 816.096 624.875 806.177 623.228L806.166 623.227C783.349 619.693 762.726 627.633 738.504 636.96L737.334 637.41L737.333 637.41C713.34 646.666 691.568 642.829 673.233 631.096C654.863 619.34 639.916 599.632 629.754 577.144C622.312 560.56 616.159 543.584 613.069 526.293L613.068 526.286C612.966 525.736 612.863 525.18 612.759 524.62C608.794 503.243 603.547 474.952 603.293 448.755C603.032 421.8 608.066 397.475 624.752 385.012C627.962 382.721 633.047 382.508 639.439 383.619C645.779 384.72 653.099 387.062 660.541 389.519C661.171 389.727 661.803 389.936 662.435 390.145C669.224 392.393 676.043 394.65 682.125 395.998C688.716 397.459 694.724 397.926 698.951 395.902L698.955 395.9C708.882 391.089 718.199 385.775 727.327 380.569C731.947 377.934 736.519 375.327 741.097 372.827C754.758 365.365 768.563 358.798 784.186 355.041L784.192 355.04C805.177 349.851 820.86 332.835 835.929 315.099C837.306 313.479 838.677 311.853 840.047 310.229C853.77 293.959 867.35 277.858 884.458 269.617L884.465 269.614C887.633 268.058 891.8 268.608 896.79 270.701C901.746 272.779 907.269 276.273 912.985 280.216C915.387 281.873 917.836 283.619 920.284 285.364C923.609 287.734 926.931 290.102 930.129 292.243C935.69 295.967 941.062 299.136 945.784 300.637C949.981 302.143 953.51 302.189 956.506 300.36L956.529 300.346L956.551 300.331C982.876 282.241 1014.68 286.01 1042.55 300.465C1051.08 304.911 1060.09 310.891 1068.23 322.392C1068.3 322.533 1068.37 322.652 1068.43 322.736C1068.51 322.862 1068.61 322.991 1068.69 323.091C1068.77 323.202 1068.84 323.285 1068.89 323.357C1068.91 323.389 1068.92 323.409 1068.92 323.418L1068.96 323.517L1069.03 323.628C1079.65 339.295 1085.06 359.705 1086.19 378.724C1087.31 397.777 1084.12 415.214 1077.78 424.992C1071.41 434.823 1063.1 440.29 1054.39 445.211C1053.02 445.987 1051.63 446.752 1050.24 447.518C1042.86 451.586 1035.35 455.726 1028.91 462.178C1024.84 466.094 1021.32 470.535 1018.25 475.172L1018.25 475.174C1009.86 487.913 1004.55 503.247 1000.57 518.94C997.982 529.135 995.943 539.548 993.989 549.518C992.941 554.869 991.918 560.093 990.848 565.087Z" stroke="#FF9900" stroke-width="2" stroke-miterlimit="10"/>
<path d="M1108.29 412.431L1108.28 412.437C1101.02 423.812 1091.41 430.164 1081.31 435.919C1079.73 436.817 1078.14 437.702 1076.54 438.589C1067.94 443.369 1059.17 448.246 1051.59 455.842C1047 460.295 1042.74 465.702 1039.24 471.2C1029.66 486.122 1023.52 503.953 1018.95 522.201C1015.7 535.156 1013.23 548.377 1010.89 560.94C1009.93 566.06 1009 571.071 1008.04 575.91C1006.82 581.876 1005.67 588.621 1004.43 595.835C1001.72 611.606 998.621 629.621 993.74 646.643C986.621 671.467 975.812 693.732 957.261 703.553C940.554 712.38 921.141 707.611 904.026 700.01C891.53 694.407 879.632 686.733 867.686 678.66C865.644 677.279 863.6 675.887 861.552 674.492C851.639 667.741 841.621 660.917 831.192 655.033C818.72 647.851 806.887 643.646 795.478 641.799C769.204 637.486 745.425 646.72 716.984 657.862C688.755 668.743 663.34 664.113 642.028 650.294C620.679 636.451 603.421 613.362 591.689 587.325C583.376 568.194 576.133 548.035 572.383 527.769C572.073 526.095 571.754 524.377 571.427 522.622C566.896 498.265 560.98 466.468 560.394 436.869C560.079 421.006 561.298 405.83 565.054 392.803C568.81 379.78 575.083 368.965 584.839 361.726L584.845 361.721C588.569 358.913 594.545 358.689 602.052 360.082C609.495 361.464 618.116 364.368 626.871 367.42C627.705 367.711 628.541 368.003 629.377 368.295C637.275 371.056 645.188 373.823 652.236 375.519C656.137 376.458 659.811 377.079 663.103 377.185C666.387 377.29 669.358 376.885 671.806 375.71C683.54 370.128 694.561 363.801 705.41 357.574C710.543 354.627 715.639 351.702 720.753 348.888C736.714 340.108 752.948 332.357 771.428 328.153L771.431 328.152C795.679 322.567 813.523 302.48 830.597 281.399C832.31 279.285 834.014 277.161 835.717 275.038C842.541 266.534 849.34 258.06 856.509 250.405C865.46 240.85 874.928 232.638 885.623 227.317C889.162 225.636 893.902 226.462 899.616 229.125C905.287 231.768 911.641 236.088 918.222 240.936C920.976 242.964 923.781 245.093 926.585 247.222C930.433 250.142 934.279 253.062 937.988 255.717C944.413 260.315 950.6 264.251 956.012 266.227C960.537 267.911 965.014 268.472 968.302 266.126C998.632 245.255 1035 249.934 1067.25 266.799C1077.17 272.19 1087.57 279.116 1097.1 292.613C1097.26 293.005 1097.47 293.28 1097.61 293.469L1097.63 293.488C1097.79 293.699 1097.86 293.797 1097.91 293.946L1097.95 294.069L1098.02 294.178C1110.26 312.492 1116.57 336.325 1117.93 358.504C1119.3 380.721 1115.68 401.053 1108.29 412.431Z" stroke="#FF9900" stroke-width="2" stroke-miterlimit="10"/>
<path d="M642.863 356.488C656.412 350.037 669.067 342.689 681.517 335.461C687.337 332.082 693.112 328.729 698.913 325.506C717.16 315.367 735.744 306.459 757.083 301.808L757.089 301.807C784.536 295.664 804.459 272.542 823.511 248.169C825.463 245.672 827.405 243.163 829.346 240.655C836.917 230.871 844.468 221.114 852.45 212.296C862.471 201.225 873.112 191.706 885.208 185.554C889.229 183.542 894.596 184.547 901.048 187.732C907.451 190.892 914.624 196.05 922.057 201.827C925.088 204.183 928.17 206.649 931.254 209.116C935.687 212.663 940.122 216.211 944.411 219.438C951.684 224.909 958.695 229.583 964.853 231.932C969.995 234.177 974.743 234.583 978.634 232.065L978.645 232.057L978.656 232.05C1013.32 208.271 1054.69 214.076 1090.9 233.147C1102.13 239.181 1114.37 247.28 1124.88 262.634L1124.94 262.714L1125 262.782C1125.18 262.957 1125.32 263.157 1125.51 263.457L1125.53 263.483C1125.69 263.739 1125.91 264.075 1126.22 264.394C1140.19 285.288 1147.47 312.478 1149.11 337.772C1150.75 363.136 1146.7 386.364 1138.26 399.341L1138.25 399.348L1138.25 399.354C1129.99 412.486 1119.01 419.751 1107.49 426.3C1105.7 427.32 1103.89 428.325 1102.07 429.332C1092.27 434.769 1082.29 440.299 1073.74 448.987C1068.42 454.385 1063.64 460.322 1059.71 466.691C1048.92 483.8 1042.06 504.187 1036.95 525.015C1033.44 539.319 1030.75 553.889 1028.18 567.769C1027.01 574.084 1025.87 580.257 1024.69 586.197C1023.27 593.241 1021.93 601.248 1020.5 609.822C1017.52 627.637 1014.14 647.897 1008.74 667.039C1000.75 695.402 988.453 720.83 966.948 731.842L966.939 731.847C948.123 741.75 925.521 735.955 906.158 726.988C892.057 720.335 878.687 711.476 865.243 702.271C863.617 701.157 861.99 700.039 860.361 698.919C848.535 690.79 836.578 682.571 824.013 675.592M642.863 356.488C642.862 356.488 642.861 356.489 642.86 356.489L642.43 355.586L642.863 356.487C642.863 356.487 642.863 356.488 642.863 356.488ZM642.863 356.488C640.105 357.814 636.732 358.254 632.98 358.1C629.221 357.946 625.01 357.192 620.529 356.066C612.286 353.993 602.997 350.623 593.744 347.266C592.947 346.976 592.15 346.687 591.353 346.399C581.285 342.753 571.371 339.257 562.858 337.514C558.605 336.644 554.747 336.221 551.426 336.42C548.104 336.62 545.385 337.437 543.336 338.984L543.332 338.987C532.179 347.323 525.094 359.787 520.923 374.777C516.75 389.771 515.511 407.229 516.01 425.45C516.887 457.519 523.134 491.77 528.069 518.824C528.743 522.519 529.393 526.081 530.001 529.484L530.001 529.487C534.095 552.827 542.314 575.844 552.346 597.927L552.348 597.931C565.648 627.518 585.325 654.044 609.733 669.949C634.101 685.828 663.21 691.146 695.563 678.326L695.571 678.322C727.826 665.875 754.47 655.662 783.833 660.697M783.833 660.697C783.831 660.696 783.828 660.696 783.826 660.696L783.67 661.683L783.839 660.698C783.837 660.697 783.835 660.697 783.833 660.697ZM783.833 660.697C796.738 662.746 809.848 667.582 824.013 675.592M824.013 675.592C824.012 675.591 824.01 675.59 824.009 675.59L823.524 676.463L824.016 675.594C824.015 675.593 824.014 675.592 824.013 675.592Z" stroke="#FF9900" stroke-width="2" stroke-miterlimit="10"/>
<path d="M908.184 753.649L908.191 753.652C929.885 764.291 955.267 770.919 976.948 760.026C1001.2 747.715 1015.07 719.091 1024.03 687.203C1030.2 665.246 1034 641.96 1037.3 621.659C1038.8 612.491 1040.19 603.932 1041.66 596.379C1042.95 589.674 1044.19 582.688 1045.47 575.529C1048.22 560.025 1051.13 543.707 1054.94 527.659C1060.52 504.184 1068.08 481.16 1080.08 461.862L1080.08 461.853C1084.72 454.561 1089.6 447.873 1095.46 441.916C1105.1 432.038 1116.38 425.773 1127.49 419.6C1129.41 418.534 1131.32 417.471 1133.22 416.392C1146.16 409.046 1158.54 400.946 1167.9 386.369C1177.19 371.68 1181.69 345.626 1179.88 317.173C1178.08 288.785 1170 258.226 1154.35 234.529C1154.05 234.21 1153.83 233.876 1153.67 233.62L1153.65 233.595C1153.46 233.294 1153.32 233.094 1153.14 232.919L1153.08 232.852L1153.02 232.772C1141.11 215.408 1127.48 206.362 1114.85 199.379C1074.6 177.797 1028.34 171.18 989.347 197.852C985.181 200.867 979.812 199.837 974.053 197.543L974.043 197.539C967.189 194.718 959.351 189.255 951.205 182.886C946.454 179.171 941.542 175.102 936.635 171.035C933.14 168.14 929.648 165.246 926.216 162.483C917.919 155.802 909.924 149.838 902.831 146.172C895.676 142.474 889.772 141.288 885.43 143.573L885.429 143.574C872.039 150.609 860.285 161.483 849.225 174.102C840.559 183.99 832.358 194.904 824.139 205.841C821.864 208.868 819.587 211.898 817.299 214.908C796.268 242.574 774.239 268.652 743.696 275.136L743.695 275.136C719.493 280.234 698.449 290.25 677.889 301.668C671.14 305.415 664.433 309.321 657.681 313.253C643.908 321.273 629.951 329.401 615.082 336.513M908.184 753.649L614.649 335.612M908.184 753.649C892.531 746.104 877.741 736.218 862.907 725.934C860.818 724.486 858.728 723.03 856.634 721.571C843.883 712.686 831.007 703.714 817.492 695.946L908.184 753.649ZM615.082 336.513C615.081 336.514 615.081 336.514 615.081 336.514L614.649 335.612M615.082 336.513C615.082 336.513 615.083 336.513 615.083 336.513L614.649 335.612M615.082 336.513C612.016 337.99 608.246 338.463 604.034 338.258C599.815 338.053 595.078 337.164 590.027 335.846C580.702 333.414 570.174 329.485 559.678 325.567C558.812 325.244 557.946 324.921 557.082 324.598C545.7 320.358 534.476 316.279 524.835 314.195C520.018 313.154 515.642 312.622 511.871 312.803C508.099 312.983 505.002 313.873 502.665 315.608M614.649 335.612C603.649 340.91 581.898 332.793 560.016 324.626C536.41 315.815 512.651 306.948 502.069 314.805M502.665 315.608C502.665 315.607 502.666 315.607 502.666 315.607L502.069 314.805M502.665 315.608L502.069 314.805M502.665 315.608L502.069 314.805M488.571 530.865C488.571 530.865 488.571 530.865 488.571 530.864L487.587 531.042L488.571 530.865Z" stroke="#FF9900" stroke-width="2" stroke-miterlimit="10"/>
<path d="M762.236 698.266C726.496 692.219 693.61 703.852 654.23 719.446C613.241 735.575 576.79 728.772 546.443 708.772C516.053 688.745 491.753 655.456 475.26 618.611C462.953 590.912 452.773 562.168 447.359 532.88C446.391 527.505 445.326 521.796 444.211 515.815C438.029 482.664 430.295 441.185 428.793 402.217C427.906 379.224 429.194 357.166 434.226 338.257C439.257 319.351 448.011 303.662 462.008 293.289L462.013 293.285C464.625 291.326 468.089 290.332 472.298 290.142C476.507 289.951 481.39 290.566 486.763 291.755C497.515 294.135 510.038 298.769 522.726 303.584C523.73 303.965 524.735 304.347 525.74 304.729C537.403 309.163 549.086 313.606 559.428 316.377C565.048 317.883 570.311 318.906 574.99 319.162C579.662 319.416 583.829 318.91 587.202 317.283C603.886 309.301 619.445 300.164 634.786 291.154C642.204 286.797 649.572 282.47 656.992 278.318C679.797 265.556 703.195 254.381 730.417 248.782L730.42 248.781C764.156 241.741 788.262 212.634 811.272 181.674C813.789 178.287 816.294 174.877 818.797 171.468C827.773 159.247 836.735 147.045 846.223 135.989C858.352 121.857 871.278 109.676 886.066 101.809C890.847 99.2887 897.355 100.693 905.224 104.91C913.028 109.093 921.829 115.857 930.964 123.428C934.794 126.603 938.692 129.928 942.592 133.255C947.946 137.821 953.302 142.39 958.489 146.576C967.464 153.818 976.093 160.05 983.635 163.346C990.007 166.201 995.98 166.98 1000.45 163.877C1043.14 134.515 1094.29 141.938 1138.93 165.936C1152.83 173.54 1167.96 183.848 1181.27 203.228L1181.32 203.307L1181.39 203.374C1181.55 203.525 1181.7 203.767 1181.93 204.168L1181.96 204.214C1182.14 204.526 1182.38 204.953 1182.71 205.3C1200.08 231.429 1209.11 265.302 1211.18 296.798C1213.25 328.36 1208.31 357.312 1197.98 373.601C1187.62 389.937 1173.87 398.951 1159.52 407.09C1157.4 408.293 1155.26 409.478 1153.12 410.665C1140.81 417.492 1128.34 424.407 1117.72 435.372L1117.72 435.38L1117.71 435.389C1111.45 442.172 1105.73 449.491 1100.66 457.666L1100.65 457.67C1087.45 479.155 1079.17 504.734 1073.06 530.79C1068.97 548.201 1065.83 565.885 1062.85 582.722C1061.37 591.062 1059.93 599.194 1058.43 606.981L1058.43 606.982C1056.83 615.288 1055.32 624.732 1053.71 634.867C1050.11 657.339 1045.98 683.207 1039.17 707.596C1029.28 742.998 1013.84 774.817 986.628 788.319L986.623 788.322C962.833 800.29 934.26 792.633 910.319 780.629L910.317 780.628C893.058 772.032 876.796 760.961 860.57 749.597C858.782 748.345 856.995 747.089 855.206 745.833C840.784 735.701 826.307 725.53 811.165 716.924C793.793 706.81 777.803 700.827 762.236 698.266ZM762.236 698.266C762.235 698.266 762.234 698.266 762.233 698.266L762.071 699.252L762.238 698.266C762.237 698.266 762.236 698.266 762.236 698.266Z" stroke="#FF9900" stroke-width="2" stroke-miterlimit="10"/>
<path d="M912.447 807.606L912.454 807.609C938.732 821.287 970.082 829.777 996.737 816.821C1026.75 802.181 1043.73 767.089 1054.6 728.064C1062.01 701.474 1066.53 673.285 1070.47 648.773C1072.3 637.323 1074.01 626.676 1075.83 617.37M912.447 807.606L1076.81 617.556M912.447 807.606C893.585 797.96 875.932 785.678 858.273 773.115C856.768 772.044 855.262 770.971 853.755 769.897C837.613 758.39 821.381 746.82 804.201 737.06C785.123 726.11 767.539 719.609 750.806 716.738C711.863 709.648 676.111 722.265 633.022 739.482L633.021 739.483C588.066 757.498 548.001 749.981 514.635 727.906C481.227 705.803 454.509 669.078 436.447 628.685L436.447 628.685C422.95 598.546 411.477 567.053 405.612 534.375L405.612 534.374C404.494 528.176 403.255 521.564 401.953 514.621C395.167 478.415 386.689 433.188 384.925 390.626C383.875 365.269 385.211 340.92 390.684 320.034C396.155 299.153 405.74 281.805 421.136 270.333C424.036 268.186 427.879 267.121 432.538 266.95C437.196 266.779 442.598 267.503 448.535 268.863C460.414 271.584 474.247 276.802 488.248 282.211C489.322 282.626 490.397 283.042 491.472 283.458C504.377 288.453 517.298 293.454 528.719 296.584C534.909 298.281 540.698 299.44 545.838 299.746C550.967 300.052 555.528 299.512 559.208 297.737C577.808 288.949 595.137 278.768 612.249 268.715C620.204 264.041 628.112 259.395 636.079 254.93C661.225 240.835 687.055 228.474 717.14 222.427C754.126 214.991 780.309 182.853 805.284 148.561C808.056 144.755 810.814 140.921 813.57 137.089C823.271 123.602 832.961 110.131 843.236 97.9223C856.426 82.2512 870.517 68.7423 886.705 60.0424L886.711 60.0396L912.447 807.606ZM1075.83 617.37C1075.83 617.368 1075.83 617.366 1075.83 617.365L1076.81 617.556M1075.83 617.37C1075.83 617.37 1075.83 617.371 1075.83 617.371L1076.81 617.556M1075.83 617.37C1077.41 608.959 1078.92 600.167 1080.48 591.143C1083.68 572.546 1087.06 552.959 1091.53 533.665C1098.17 504.989 1107.25 476.825 1121.87 453.254M1076.81 617.556C1078.4 609.114 1079.91 600.307 1081.47 591.274C1089.43 545.079 1098.41 492.983 1122.72 453.779M1121.87 453.254C1121.87 453.256 1121.87 453.257 1121.87 453.259L1122.72 453.779M1121.87 453.254C1121.87 453.253 1121.87 453.252 1121.87 453.252L1122.72 453.779M1121.87 453.254L1122.72 453.779M1140.74 428.918C1140.74 428.921 1140.73 428.924 1140.73 428.927L1141.45 429.62L1140.75 428.908C1140.75 428.911 1140.74 428.914 1140.74 428.918ZM1211.99 175.695C1211.99 175.704 1212 175.714 1212.01 175.723L1212.8 175.117L1211.97 175.668C1211.97 175.677 1211.98 175.686 1211.99 175.695ZM1164.07 132.485L1164.55 131.605L1164.07 132.484C1164.07 132.485 1164.07 132.485 1164.07 132.485ZM993.567 129.052L993.977 128.14L993.564 129.051C993.565 129.051 993.566 129.052 993.567 129.052Z" stroke="#FF9900" stroke-width="2" stroke-miterlimit="10"/>
<path d="M914.579 834.584L914.576 834.582C894.11 823.887 874.985 810.42 855.884 796.621C853.93 795.209 851.976 793.793 850.021 792.377C832.883 779.964 815.657 767.487 797.456 756.775L797.451 756.772C776.985 744.876 758.116 737.745 739.888 734.673C697.337 727.401 659.047 740.882 612.141 759.406L612.138 759.407C562.785 779.104 518.995 770.818 482.612 746.669C446.186 722.492 417.157 682.385 397.527 638.443L397.526 638.441C382.737 605.559 370.6 571.092 364.074 535.436C362.805 528.433 361.39 520.94 359.902 513.057C352.46 473.642 343.179 424.486 341.131 378.21C339.903 350.45 341.282 323.79 347.198 300.939C353.112 278.093 363.541 259.127 380.36 246.636C383.549 244.301 387.771 243.161 392.876 243.001C397.982 242.841 403.898 243.664 410.394 245.183C423.392 248.22 438.524 253.992 453.831 259.975C455.057 260.455 456.284 260.935 457.51 261.415C471.57 266.922 485.633 272.43 498.065 275.914C504.827 277.809 511.146 279.117 516.752 279.495C522.349 279.873 527.315 279.331 531.314 277.447L531.321 277.444C551.152 267.926 569.658 256.983 587.935 246.176C596.959 240.839 605.927 235.536 614.971 230.454C642.377 215.055 670.588 201.613 703.537 195.118L703.538 195.118C743.555 187.181 771.842 152.097 798.81 114.55C801.878 110.278 804.929 105.974 807.98 101.671C818.376 87.0045 828.764 72.3515 839.774 59.053C854.009 41.8596 869.218 27.0153 886.701 17.4303C892.331 14.366 900.064 16.2011 909.408 21.4888C918.676 26.7338 929.159 35.1634 940.035 44.5812C944.638 48.567 949.321 52.739 954.005 56.911C960.339 62.5541 966.674 68.1972 972.809 73.3791C983.489 82.3993 993.727 90.1672 1002.63 94.3323C1010.37 98.1294 1017.54 99.2515 1022.87 95.4847C1074.23 60.3229 1135.28 69.6858 1187.92 98.4006C1204.46 107.565 1222.34 119.742 1238.43 143.07C1238.82 144.121 1239.52 145.031 1240.1 145.802L1240.13 145.834C1260.91 177.203 1271.75 217.94 1274.3 255.775C1276.84 293.659 1271.05 328.408 1258.77 347.844L1258.77 347.845C1246.36 367.544 1229.94 378.357 1212.82 388.112C1210.29 389.552 1207.74 390.97 1205.19 392.392C1190.49 400.575 1175.61 408.86 1162.89 422.059C1154.91 430.157 1148.35 439.196 1142.35 448.732L1142.35 448.738L1142.34 448.745C1126.57 474.661 1116.79 505.459 1109.63 536.755C1104.9 557.397 1101.3 578.319 1097.87 598.217C1096.11 608.466 1094.39 618.444 1092.59 627.973C1090.73 637.794 1088.96 648.994 1087.05 661.036C1082.79 688.025 1077.86 719.244 1069.67 748.655C1057.83 791.207 1039.29 829.498 1006.52 845.435L1006.52 845.435C977.758 859.465 943.111 849.632 914.579 834.584Z" stroke="#FF9900" stroke-width="2" stroke-miterlimit="10"/>
<path d="M916.704 861.559L916.703 861.559C894.632 849.812 874.062 835.239 853.491 820.387C851.93 819.26 850.369 818.132 848.808 817.003C829.805 803.264 810.704 789.454 790.387 777.653L790.382 777.65C768.206 764.916 748.172 757.48 728.358 753.89L728.352 753.889C682.714 745.896 641.456 760.036 590.835 780.184L590.83 780.187C537.351 801.825 489.945 792.825 450.585 766.588C411.181 740.322 379.813 696.753 358.614 649.263L358.613 649.259C342.416 613.301 328.986 576.085 322.118 537.359L321.207 537.52L322.118 537.358C320.615 528.895 318.905 519.762 317.097 510.114C309.206 467.985 299.474 416.025 297.174 367.005C295.762 336.888 297.16 307.946 303.491 283.128C309.821 258.313 321.062 237.694 339.282 224.105C342.706 221.559 347.263 220.325 352.786 220.162C358.308 219.999 364.719 220.911 371.764 222.58C385.858 225.92 402.3 232.242 418.933 238.793C420.244 239.31 421.557 239.828 422.87 240.346C438.171 246.383 453.478 252.423 466.998 256.251C474.342 258.33 481.198 259.768 487.271 260.194C493.335 260.619 498.701 260.041 503.007 258.007L503.009 258.006C524.751 247.684 545.025 235.699 565.07 223.849C574.634 218.195 584.146 212.572 593.74 207.175C623.486 190.442 654.131 175.814 689.943 168.872C711.594 164.701 729.999 153.079 746.596 137.415C763.185 121.758 778.014 102.018 792.502 81.5473C795.82 76.8596 799.119 72.1344 802.418 67.41C813.545 51.4757 824.665 35.5501 836.467 21.0964C851.762 2.36482 868.136 -13.8075 887.018 -24.2253C890.006 -25.8583 893.563 -26.169 897.664 -25.3291C901.775 -24.4871 906.372 -22.4991 911.353 -19.616C921.318 -13.8486 932.619 -4.62137 944.352 5.67997C949.325 10.0465 954.386 14.6152 959.448 19.1846C966.281 25.3526 973.115 31.5219 979.737 37.1971C991.276 47.0866 1002.33 55.6196 1011.92 60.257L1011.93 60.2613L1011.94 60.2655C1020.4 64.1487 1027.67 65.5939 1033.64 61.6233L1033.66 61.6161C1089.34 23.5482 1155.08 34.1457 1212 64.9598C1230.24 74.957 1249.62 88.3959 1267 113.418C1267.39 114.468 1268.08 115.378 1268.67 116.15L1268.69 116.178C1291.14 150.352 1302.86 194.431 1305.62 235.345C1308.37 276.307 1302.12 313.878 1288.85 335.077C1275.55 356.322 1257.76 368.048 1239.19 378.651C1236.47 380.202 1233.74 381.73 1230.99 383.261C1215.04 392.175 1198.88 401.196 1185.15 415.516L1185.14 415.524C1176.76 424.463 1169.68 434.029 1163.24 444.433L1163.24 444.436C1146.05 472.437 1135.47 505.82 1127.78 539.738C1122.67 562.272 1118.83 585.105 1115.18 606.772C1113.34 617.696 1111.55 628.324 1109.67 638.467C1107.68 649.038 1105.8 661.117 1103.77 674.12C1099.23 703.283 1093.96 737.09 1085.13 768.938C1072.36 815.003 1052.25 856.491 1016.52 873.619L1016.51 873.622C985.002 888.947 947.479 877.971 916.704 861.559Z" stroke="#FF9900" stroke-width="2" stroke-miterlimit="10"/>
<path d="M918.834 888.536L918.83 888.534C895.154 875.737 873.114 859.98 851.003 844.009C850.102 843.357 849.2 842.706 848.298 842.054C827.1 826.736 805.776 811.327 782.898 798.326C759.213 784.32 737.262 776.478 716.287 772.579L716.28 772.577C667.553 763.863 623.431 778.983 569.103 800.755L569.101 800.755C511.544 823.966 460.492 814.172 418.114 785.86C375.692 757.518 341.934 710.595 319.167 659.557C301.99 620.735 287.581 580.655 280.052 538.955L280.052 538.954C278.447 530.128 276.63 520.618 274.712 510.576C266.009 465.02 255.215 408.511 252.575 355.22C250.965 322.707 252.395 291.458 259.165 264.675C265.933 237.898 278.018 215.661 297.661 201.053C301.374 198.318 306.312 197.013 312.284 196.87C318.256 196.727 325.185 197.748 332.793 199.588C348.015 203.269 365.767 210.176 383.712 217.321C385.094 217.871 386.477 218.423 387.861 218.975C404.404 225.573 420.947 232.172 435.547 236.359C443.461 238.629 450.843 240.202 457.377 240.679C463.901 241.154 469.661 240.542 474.273 238.359L474.275 238.358C497.666 227.232 519.418 214.297 540.93 201.504C551.194 195.401 561.403 189.33 571.71 183.503C603.663 165.439 636.662 149.651 675.497 142.208C698.742 137.759 718.49 125.254 736.284 108.37C754.071 91.4932 769.954 70.1935 785.459 48.0877C789.101 42.896 792.721 37.6609 796.34 32.4268C808.151 15.346 819.955 -1.72341 832.471 -17.2341C848.816 -37.4909 866.311 -54.9999 886.489 -66.3032C889.727 -68.1068 893.572 -68.455 897.993 -67.547C902.426 -66.6367 907.377 -64.4735 912.737 -61.3349C923.459 -55.0564 935.609 -45 948.212 -33.7756C953.601 -28.9769 959.083 -23.9546 964.563 -18.9338C971.853 -12.2553 979.139 -5.57958 986.199 0.563541C998.578 11.336 1010.42 20.6216 1020.68 25.6536C1029.73 30.0893 1037.61 31.2914 1043.89 27.23L1043.9 27.2226L1043.91 27.215C1103.3 -13.5362 1174.25 -2.23522 1235.22 31.0964L1235.22 31.0977C1255.19 41.9456 1275.99 56.352 1294.46 83.5552L1294.48 83.5778L1294.5 83.5995C1294.8 84.0014 1295.14 84.4842 1295.49 84.991L1295.5 85.0036C1295.84 85.4868 1296.19 85.9917 1296.52 86.4251C1320.74 123.188 1333.36 170.686 1336.35 214.76C1339.34 258.882 1332.66 299.353 1318.5 322.1L1318.5 322.101C1304.2 345.104 1285.04 357.743 1265.05 369.14C1262.12 370.815 1259.16 372.464 1256.2 374.116C1239.04 383.685 1221.7 393.356 1206.98 408.761L1206.98 408.767C1198.07 418.242 1190.25 428.772 1183.4 440.034L1183.39 440.039C1165.22 470.331 1154.01 506.319 1145.84 542.843C1140.52 566.623 1136.46 590.695 1132.61 613.586C1130.55 625.827 1128.55 637.731 1126.44 649.072L1126.44 649.073C1124.39 660.155 1122.45 672.783 1120.36 686.372C1115.49 718.008 1109.81 754.853 1100.21 789.529C1086.47 839.12 1064.78 883.807 1026.31 902.232C992.565 918.324 951.95 906.625 918.834 888.536Z" stroke="#FF9900" stroke-width="2" stroke-miterlimit="10"/>
<path d="M920.957 915.511L920.956 915.51C895.679 901.663 872.247 884.695 848.814 867.447C847.271 866.311 845.728 865.174 844.185 864.037C822.303 847.914 800.314 831.713 776.783 817.82L776.78 817.818C751.393 802.978 728.161 794.505 705.689 790.404L705.686 790.404C653.556 781.079 606.149 796.965 548.425 820.253L548.424 820.254C486.524 845.305 431.802 834.899 386.435 804.593C341.022 774.256 304.954 723.95 280.564 669.205C262.201 627.95 246.703 584.69 238.514 540.018C236.759 530.371 234.762 519.949 232.651 508.927C223.335 460.297 211.781 399.99 208.876 343.084C207.095 308.188 208.571 274.637 215.786 245.894C222.999 217.155 235.929 193.299 256.998 177.67L256.998 177.67C260.987 174.709 266.295 173.305 272.709 173.16C279.122 173.016 286.563 174.133 294.732 176.136C311.075 180.143 330.139 187.644 349.404 195.403C350.923 196.015 352.444 196.628 353.964 197.242C371.689 204.394 389.405 211.542 405.034 216.096C413.522 218.569 421.435 220.289 428.431 220.823C435.417 221.358 441.575 220.716 446.493 218.384L446.495 218.383C471.384 206.524 494.57 192.746 517.515 179.11C528.666 172.484 539.759 165.892 550.964 159.57C585.271 140.213 620.731 123.317 662.431 115.426L662.432 115.426C687.192 110.726 708.202 97.3669 727.125 79.286C746.04 61.2126 762.917 38.3738 779.4 14.6467C783.288 9.04866 787.155 3.40217 791.021 -2.24421C803.56 -20.5586 816.099 -38.872 829.407 -55.528C846.811 -77.3109 865.464 -96.169 887.015 -108.385C890.433 -110.293 894.509 -110.637 899.207 -109.63C903.917 -108.62 909.186 -106.265 914.894 -102.865C926.312 -96.064 939.28 -85.2101 952.74 -73.1022C958.498 -67.9229 964.357 -62.504 970.215 -57.0859C978.003 -49.8825 985.79 -42.6804 993.337 -36.0439C1006.57 -24.4048 1019.23 -14.3562 1030.19 -8.85127L1030.19 -8.84697C1039.62 -4.22358 1048.4 -2.55867 1054.91 -7.0852C1118.63 -50.7383 1194.47 -38.6244 1259.5 -2.77654L1259.51 -2.77239C1280.76 8.70121 1302.94 24.0514 1322.81 53.2594C1323.19 53.8515 1323.55 54.3626 1323.89 54.8601C1324.24 55.3631 1324.58 55.8523 1324.95 56.418L1324.95 56.423C1350.8 95.8355 1364.42 146.741 1367.72 193.959C1371.03 241.215 1364 284.554 1348.79 308.901L1349.59 309.402L1348.79 308.902C1333.44 333.507 1312.88 346.981 1291.48 359.174C1288.48 360.881 1285.46 362.563 1282.45 364.249C1263.93 374.581 1245.24 385.017 1229.45 401.792L1229.44 401.799C1219.81 412.228 1211.46 423.292 1204.18 435.415C1184.64 467.949 1172.64 506.52 1163.92 545.626C1158.18 571.416 1153.85 597.502 1149.75 622.257C1147.63 635.015 1145.57 647.421 1143.41 659.25L1143.41 659.252C1141.28 670.993 1139.26 684.364 1137.08 698.753C1131.94 732.755 1125.94 772.446 1115.65 809.772C1100.99 862.916 1077.74 910.8 1036.3 930.418L1036.3 930.419C999.808 947.806 956.318 934.964 920.957 915.511Z" stroke="#FF9900" stroke-width="2" stroke-miterlimit="10"/>
<path d="M1224.87 431.54C1204.07 466.103 1191.34 507.23 1182.11 548.954C1176.12 576.013 1171.58 603.388 1167.27 629.404C1164.94 643.479 1162.68 657.157 1160.28 670.17L1160.28 670.174C1158.06 682.515 1155.94 696.569 1153.65 711.701C1148.18 747.979 1141.77 790.456 1130.74 830.402C1115.1 887.033 1090.28 938.118 1046.09 959.032M1224.87 431.54C1224.87 431.539 1224.87 431.537 1224.87 431.536L1225.73 432.05L1224.87 431.541C1224.87 431.541 1224.87 431.541 1224.87 431.54ZM1224.87 431.54C1232.56 418.57 1241.33 406.646 1251.62 395.985M1251.62 395.985C1251.62 395.986 1251.61 395.987 1251.61 395.989L1252.34 396.675M1251.62 395.985C1268.5 378.102 1288.38 367.016 1308.04 356.049C1311.3 354.232 1314.56 352.418 1317.79 350.576C1340.56 337.604 1362.42 323.244 1378.76 296.879L1378.77 296.874C1395.03 270.927 1402.49 224.69 1398.94 174.274C1395.4 123.896 1380.88 69.5699 1353.42 27.5127L1353.42 27.5094C1352.66 26.3348 1351.93 25.2085 1351.31 24.4008L1351.29 24.3797L1351.28 24.3577C1330.01 -6.86334 1306.44 -23.1618 1283.79 -35.5838M1251.62 395.985C1251.62 395.984 1251.62 395.982 1251.62 395.981L1252.34 396.675M1252.34 396.675C1242.12 407.273 1233.39 419.135 1225.73 432.051C1191.57 488.809 1179.21 563.449 1168.27 629.524C1165.93 643.607 1163.67 657.302 1161.27 670.351C1159.05 682.643 1156.93 696.665 1154.65 711.778C1141.42 799.485 1122.64 923.908 1046.51 959.936M1252.34 396.675C1269.11 378.911 1288.84 367.905 1308.51 356.934C1334.71 342.322 1360.79 327.774 1379.61 297.405C1412.47 244.98 1409.42 111.439 1354.26 26.966C1353.5 25.803 1352.75 24.6397 1352.11 23.7946C1330.72 -7.59848 1307 -23.9914 1284.27 -36.4605M1046.51 959.936L1046.09 959.03C1046.09 959.031 1046.09 959.031 1046.09 959.032M1046.51 959.936C1007.34 978.302 960.692 964.423 922.596 943.36M1046.51 959.936L922.596 943.36M1046.09 959.032C1007.37 977.181 961.109 963.511 923.081 942.485M1046.09 959.032L923.081 942.485M923.081 942.485C896.2 927.587 871.298 909.435 846.406 891.173L844.518 889.788C820.273 871.998 795.99 854.181 769.928 839.332C743.157 823.55 718.646 814.448 694.682 810.146L694.679 810.146C639.574 800.42 589.201 816.964 527.766 841.877C461.628 868.555 403.261 857.354 354.915 824.959C306.525 792.534 268.145 738.845 242.187 680.552L242.186 680.551C222.527 636.544 206.052 590.424 197.52 542.676L197.52 542.675C195.539 531.634 193.254 519.642 190.831 506.93C181.016 455.438 168.95 392.134 165.786 332.337C163.814 295.065 165.306 259.222 172.933 228.507C180.56 197.795 194.301 172.287 216.77 155.559L216.773 155.557C220.998 152.385 226.637 150.888 233.459 150.744C240.28 150.6 248.203 151.81 256.905 153.969C274.315 158.288 294.649 166.353 315.2 174.694C316.797 175.342 318.396 175.992 319.994 176.641C338.929 184.339 357.859 192.035 374.553 196.943C383.607 199.605 392.044 201.46 399.5 202.045C406.945 202.629 413.497 201.954 418.721 199.472L418.723 199.471C445.263 186.807 469.964 172.066 494.414 157.475C506.28 150.394 518.086 143.349 530.015 136.593C566.568 115.891 604.382 97.8357 648.945 89.4977C675.327 84.6002 697.668 70.3853 717.761 51.0821C737.846 31.7867 755.734 7.3586 773.2 -18.0363C777.334 -24.0475 781.444 -30.1118 785.554 -36.1766C798.827 -55.762 812.103 -75.351 826.207 -93.1646C844.674 -116.487 864.492 -136.676 887.445 -149.725L887.446 -149.725C891.072 -151.791 895.396 -152.164 900.374 -151.084C905.364 -150.002 910.946 -147.47 916.995 -143.815C929.093 -136.504 942.84 -124.83 957.125 -111.805C963.14 -106.321 969.259 -100.588 975.381 -94.8524C983.755 -87.0081 992.136 -79.1565 1000.27 -71.9215C1014.36 -59.3916 1027.85 -48.5684 1039.58 -42.6157C1049.7 -37.1226 1058.77 -35.5887 1065.9 -40.312L1065.91 -40.3162L1065.91 -40.3205C1133.97 -86.876 1214.49 -73.5275 1283.79 -35.5838M923.081 942.485L1065.35 -41.1459C1133.84 -88.0024 1214.81 -74.4955 1284.27 -36.4605M1283.79 -35.5838L1284.27 -36.4605M1283.79 -35.5838L1284.27 -36.4605M922.596 943.36C894.976 928.052 869.452 909.324 843.945 890.608C819.685 872.807 795.441 855.019 769.428 840.198L922.596 943.36Z" stroke="#FF9900" stroke-width="2" stroke-miterlimit="10"/>
<path d="M763.287 859.362L762.794 860.205L763.286 859.362C716.329 831.954 675.633 823.016 634.923 825.734C594.258 828.449 553.646 842.792 506.878 861.803C436.559 890.264 374.548 878.269 323.171 843.76C271.748 809.219 230.95 752.095 203.265 690.307C182.311 643.55 164.748 594.25 155.446 543.211C153.314 531.306 150.837 518.335 148.207 504.56C137.815 450.122 125.025 383.131 121.593 319.793C119.442 280.118 120.97 241.944 129.034 209.243C137.098 176.546 151.676 149.399 175.569 131.652L175.572 131.65C180.045 128.304 186.034 126.747 193.285 126.63C200.534 126.513 208.961 127.837 218.22 130.17C236.742 134.835 258.396 143.481 280.281 152.41C281.893 153.067 283.507 153.727 285.12 154.386C305.374 162.662 325.631 170.939 343.477 176.214C353.114 179.062 362.089 181.048 370.012 181.68C377.925 182.312 384.876 181.601 390.405 178.97L390.407 178.97C418.447 165.572 444.584 149.987 470.469 134.552C483.219 126.949 495.908 119.383 508.734 112.133C547.641 90.1374 587.917 70.9736 635.346 62.1885C663.321 57.0129 686.997 41.8965 708.279 21.3484C729.553 0.808187 748.485 -25.2089 766.96 -52.2586C771.361 -58.7019 775.736 -65.2028 780.11 -71.7036C794.12 -92.5235 808.129 -113.343 823.009 -132.272C842.53 -157.104 863.48 -178.588 887.754 -192.444L887.755 -192.444C892.425 -195.116 898.215 -195.099 905.012 -192.854C911.811 -190.609 919.479 -186.176 927.755 -180.235C944.138 -168.476 962.67 -150.983 981.24 -133.454L981.813 -132.913C1000.54 -115.236 1019.29 -97.5793 1035.76 -85.971C1044 -80.168 1051.73 -75.8277 1058.66 -73.7679C1065.61 -71.7048 1071.87 -71.8957 1077.01 -75.3614L1077.01 -75.363C1149.19 -124.397 1234.61 -110.235 1307.97 -69.7735L1307.97 -69.7713C1331.89 -56.7248 1356.96 -39.1637 1379.63 -5.9312L1379.63 -5.92999C1410.02 38.4895 1426.09 96.8078 1430.16 151.086C1434.24 205.402 1426.31 255.441 1408.94 283.362C1391.55 311.33 1368.32 326.604 1344.14 340.412C1340.73 342.357 1337.31 344.274 1333.87 346.193C1312.98 357.882 1291.88 369.686 1273.98 388.696C1239.39 425.324 1219.48 474.92 1206.08 526.966C1196.62 563.688 1190.39 601.723 1184.55 637.341C1182.12 652.186 1179.76 666.612 1177.26 680.348L1177.26 680.35C1174.91 693.412 1172.68 708.314 1170.27 724.378C1164.49 762.889 1157.72 808.075 1146.02 850.566C1129.44 910.806 1103.08 965.166 1056.08 987.217C1014.61 1006.66 965.475 991.849 925.203 969.458L924.717 970.332L925.202 969.458C896.774 953.669 870.429 934.413 844.109 914.955C842.91 914.069 841.711 913.182 840.512 912.295C815.405 893.725 790.235 875.108 763.287 859.362Z" stroke="#FF9900" stroke-width="2" stroke-miterlimit="10"/>
</svg>
