<svg width="1132" height="410" viewBox="0 0 1132 410" fill="none" xmlns="http://www.w3.org/2000/svg">
<path d="M36.25 253C24.9167 253 19.25 247.333 19.25 236V93.75C19.25 82.4167 24.9167 76.75 36.25 76.75H125.5C134.167 76.75 138.5 80.9167 138.5 89.25C138.5 97.9167 134.167 102.25 125.5 102.25H50V150.75H120C128.667 150.75 133 155 133 163.5C133 172 128.667 176.25 120 176.25H50V227.5H125.5C134.167 227.5 138.5 231.75 138.5 240.25C138.5 248.75 134.167 253 125.5 253H36.25ZM181.42 255C171.087 255 165.92 249.667 165.92 239V144.5C165.92 134 171.003 128.75 181.17 128.75C191.337 128.75 196.42 134 196.42 144.5V149.5C200.087 142.833 205.17 137.667 211.67 134C218.17 130.167 225.67 128.25 234.17 128.25C252.503 128.25 264.503 136.25 270.17 152.25C274.003 144.75 279.503 138.917 286.67 134.75C293.837 130.417 302.003 128.25 311.17 128.25C338.67 128.25 352.42 145 352.42 178.5V239C352.42 249.667 347.17 255 336.67 255C326.337 255 321.17 249.667 321.17 239V179.75C321.17 170.417 319.587 163.583 316.42 159.25C313.42 154.917 308.253 152.75 300.92 152.75C292.753 152.75 286.337 155.667 281.67 161.5C277.003 167.167 274.67 175.083 274.67 185.25V239C274.67 249.667 269.503 255 259.17 255C248.67 255 243.42 249.667 243.42 239V179.75C243.42 170.417 241.837 163.583 238.67 159.25C235.67 154.917 230.587 152.75 223.42 152.75C215.253 152.75 208.837 155.667 204.17 161.5C199.503 167.167 197.17 175.083 197.17 185.25V239C197.17 249.667 191.92 255 181.42 255ZM424.908 255.5C416.075 255.5 408.158 253.833 401.158 250.5C394.325 247 388.908 242.333 384.908 236.5C381.075 230.667 379.158 224.083 379.158 216.75C379.158 207.75 381.492 200.667 386.158 195.5C390.825 190.167 398.408 186.333 408.908 184C419.408 181.667 433.492 180.5 451.158 180.5H459.908V175.25C459.908 166.917 458.075 160.917 454.408 157.25C450.742 153.583 444.575 151.75 435.908 151.75C431.075 151.75 425.825 152.333 420.158 153.5C414.658 154.667 408.825 156.667 402.658 159.5C398.658 161.333 395.325 161.583 392.658 160.25C389.992 158.75 388.158 156.5 387.158 153.5C386.325 150.333 386.492 147.167 387.658 144C388.992 140.833 391.575 138.5 395.408 137C403.075 133.833 410.408 131.583 417.408 130.25C424.575 128.917 431.075 128.25 436.908 128.25C454.742 128.25 467.992 132.417 476.658 140.75C485.325 148.917 489.658 161.667 489.658 179V239C489.658 249.667 484.825 255 475.158 255C465.325 255 460.408 249.667 460.408 239V233.5C457.575 240.333 453.075 245.75 446.908 249.75C440.742 253.583 433.408 255.5 424.908 255.5ZM431.408 234C439.575 234 446.325 231.167 451.658 225.5C457.158 219.833 459.908 212.667 459.908 204V198.5H451.408C435.742 198.5 424.825 199.75 418.658 202.25C412.658 204.583 409.658 208.917 409.658 215.25C409.658 220.75 411.575 225.25 415.408 228.75C419.242 232.25 424.575 234 431.408 234ZM532.877 198.5C529.21 198.5 526.127 197.333 523.627 195C521.294 192.5 520.127 189.5 520.127 186C520.127 182.333 521.294 179.333 523.627 177C526.127 174.667 529.21 173.5 532.877 173.5H586.127C589.627 173.5 592.544 174.667 594.877 177C597.377 179.333 598.627 182.333 598.627 186C598.627 189.5 597.377 192.5 594.877 195C592.544 197.333 589.627 198.5 586.127 198.5H532.877ZM617.945 254.75C613.279 254.917 609.612 253.667 606.945 251C604.279 248.333 602.945 244.917 602.945 240.75C602.945 237.583 603.945 234.833 605.945 232.5C607.779 230 610.529 228.667 614.195 228.5L621.695 228C636.529 227 643.945 218.833 643.945 203.5V91C643.945 80.1667 649.279 74.75 659.945 74.75C670.612 74.75 675.945 80.1667 675.945 91V203.25C675.945 218.917 671.779 231.083 663.445 239.75C655.112 248.417 642.779 253.25 626.445 254.25L617.945 254.75ZM766.824 255.5C754.158 255.5 743.158 252.917 733.824 247.75C724.491 242.583 717.241 235.25 712.074 225.75C706.908 216.083 704.324 204.75 704.324 191.75C704.324 178.75 706.908 167.5 712.074 158C717.241 148.5 724.491 141.167 733.824 136C743.158 130.833 754.158 128.25 766.824 128.25C779.491 128.25 790.491 130.833 799.824 136C809.158 141.167 816.408 148.5 821.574 158C826.741 167.5 829.324 178.75 829.324 191.75C829.324 204.75 826.741 216.083 821.574 225.75C816.408 235.25 809.158 242.583 799.824 247.75C790.491 252.917 779.491 255.5 766.824 255.5ZM766.824 231.75C776.158 231.75 783.658 228.417 789.324 221.75C794.991 214.917 797.824 204.917 797.824 191.75C797.824 178.417 794.991 168.5 789.324 162C783.658 155.333 776.158 152 766.824 152C757.491 152 749.991 155.333 744.324 162C738.658 168.5 735.824 178.417 735.824 191.75C735.824 204.917 738.658 214.917 744.324 221.75C749.991 228.417 757.491 231.75 766.824 231.75ZM870.617 255C860.284 255 855.117 249.667 855.117 239V90.5C855.117 80 860.284 74.75 870.617 74.75C881.117 74.75 886.367 80 886.367 90.5V148.5C890.534 141.833 896.117 136.833 903.117 133.5C910.117 130 917.867 128.25 926.367 128.25C955.201 128.25 969.617 145 969.617 178.5V239C969.617 249.667 964.451 255 954.117 255C943.617 255 938.367 249.667 938.367 239V180C938.367 170.5 936.534 163.583 932.867 159.25C929.367 154.917 923.867 152.75 916.367 152.75C907.201 152.75 899.867 155.667 894.367 161.5C889.034 167.167 886.367 174.75 886.367 184.25V239C886.367 249.667 881.117 255 870.617 255ZM1016.86 255C1006.52 255 1001.36 249.667 1001.36 239V144.5C1001.36 134 1006.44 128.75 1016.61 128.75C1026.77 128.75 1031.86 134 1031.86 144.5V149.75C1036.02 142.75 1041.61 137.417 1048.61 133.75C1055.77 130.083 1063.77 128.25 1072.61 128.25C1101.44 128.25 1115.86 145 1115.86 178.5V239C1115.86 249.667 1110.69 255 1100.36 255C1089.86 255 1084.61 249.667 1084.61 239V180C1084.61 170.5 1082.77 163.583 1079.11 159.25C1075.61 154.917 1070.11 152.75 1062.61 152.75C1053.44 152.75 1046.11 155.667 1040.61 161.5C1035.27 167.167 1032.61 174.75 1032.61 184.25V239C1032.61 249.667 1027.36 255 1016.86 255Z" fill="white"/>
<path fill-rule="evenodd" clip-rule="evenodd" d="M835.941 334.17C768.592 383.618 670.974 410 586.926 410C469.077 410 362.983 366.582 282.718 294.371C276.413 288.691 282.063 280.953 289.63 285.375C376.251 335.577 483.354 365.778 593.989 365.778C668.603 365.778 750.683 350.401 826.154 318.491C837.555 313.667 847.09 325.928 835.941 334.17Z" fill="#FF9900"/>
<path fill-rule="evenodd" clip-rule="evenodd" d="M863.94 302.26C855.364 291.304 807.033 297.084 785.34 299.646C778.731 300.451 777.723 294.722 783.675 290.601C822.168 263.616 885.33 271.405 892.695 280.45C900.061 289.546 890.778 352.612 854.606 382.713C849.057 387.336 843.759 384.874 846.231 378.742C854.355 358.542 872.566 313.265 863.94 302.26Z" fill="#FF9900"/>
</svg>
